#!OML:ASF H:\Terrain\Patient Classification 1\Walking\liu\liu.ASF
:FULLY-SPECIFIED
:DEGREES
356
root 9.269330 17.079201 14.168300 6.590900 8.528720 -2.180270
lowerback -6.847907 -2.392269 -1.042867
upperback -1.609982 -3.192761 3.174435
thorax 2.393237 -1.604086 3.601026
lowerneck -21.469141 -6.617424 -14.655740
upperneck 22.504459 -8.661324 15.519131
head 12.062050 -3.358157 6.792973
rclavicle 0.000000 0.000000
rhumerus -45.821491 13.990460 -93.387032
rradius 43.239681
rwrist -25.024122
rhand -33.625679 -31.122190
rfingers 7.837522
rthumb -4.253403 -64.061363
lclavicle 0.000000 0.000000
lhumerus -41.765572 -23.584002 109.645363
lradius 27.800852
lwrist 7.942616
lhand -11.080190 -21.743589
lfingers 7.837522
lthumb 17.504740 10.559197
rfemur -25.380409 4.634795 29.605181
rtibia 36.050850
rfoot -15.939660 1.453738
rtoes -12.326930
lfemur -18.029770 8.815114 -15.681271
ltibia 70.642990
lfoot -5.046965 12.295140
ltoes -5.389241
357
root 9.265800 17.086901 14.287000 6.525390 8.205210 -2.220000
lowerback -6.750315 -2.204642 -0.978548
upperback -1.448502 -2.948847 3.133625
thorax 2.484482 -1.484307 3.543496
lowerneck -21.819052 -6.682313 -14.616800
upperneck 22.566721 -8.724507 15.501531
head 12.160391 -3.372171 6.769895
rclavicle 0.000000 -0.000000
rhumerus -45.021679 14.817990 -93.526184
rradius 43.550209
rwrist -25.100019
rhand -33.096802 -28.834299
rfingers 7.837522
rthumb -3.742728 -61.782162
lclavicle 0.000000 -0.000000
lhumerus -42.605091 -24.636700 109.988007
lradius 28.410471
lwrist 9.667725
lhand -12.913561 -22.016941
lfingers 7.837522
lthumb 15.738800 10.418826
rfemur -24.664202 5.080229 29.748070
rtibia 35.766609
rfoot -16.319931 1.314852
rtoes -13.498321
lfemur -19.582970 8.666240 -16.007860
ltibia 71.064842
lfoot -6.237759 11.851511
ltoes -4.702027
358
root 9.267740 17.092300 14.413100 6.423040 7.906170 -2.196570
lowerback -6.604532 -1.983476 -0.897334
upperback -1.393711 -2.657567 3.058341
thorax 2.434311 -1.338216 3.447664
lowerneck -21.776150 -6.729778 -14.717451
upperneck 22.635029 -8.773369 15.503950
head 12.189981 -3.403488 6.783095
rclavicle 0.000000 0.000000
rhumerus -44.658680 15.468420 -93.617920
rradius 44.082062
rwrist -25.253361
rhand -33.208450 -29.880512
rfingers 7.837522
rthumb -3.850484 -62.826611
lclavicle 0.000000 0.000000
lhumerus -43.618191 -24.855270 110.075905
lradius 29.108421
lwrist 10.215370
lhand -15.164491 -22.750751
lfingers 7.837522
lthumb 13.569160 9.827015
rfemur -23.897060 5.284884 29.827162
rtibia 35.492271
rfoot -16.602520 1.378762
rtoes -13.680920
lfemur -20.897141 8.439222 -16.532671
ltibia 71.280769
lfoot -7.273728 11.879560
ltoes -5.230764
359
root 9.265720 17.089500 14.529900 6.408350 7.656680 -2.412340
lowerback -6.381034 -1.812261 -0.685432
upperback -1.580073 -2.437765 3.119600
thorax 2.098404 -1.222881 3.418536
lowerneck -21.338789 -6.685855 -14.873650
upperneck 22.649441 -8.753041 15.636391
head 12.121231 -3.408636 6.868037
rclavicle -0.000000 -0.000000
rhumerus -44.559792 15.948350 -93.695465
rradius 44.518871
rwrist -25.177792
rhand -33.598511 -30.798241
rfingers 7.837522
rthumb -4.227168 -63.737850
lclavicle -0.000000 -0.000000
lhumerus -44.707630 -24.376440 109.988007
lradius 29.519602
lwrist 9.964560
lhand -16.116650 -23.394030
lfingers 7.837522
lthumb 12.650881 9.236909
rfemur -23.315599 5.479914 30.213482
rtibia 35.227829
rfoot -16.883131 1.416283
rtoes -13.788280
lfemur -22.439779 8.388941 -16.692390
ltibia 71.392418
lfoot -7.962878 12.023220
ltoes -5.710903
360
root 9.268170 17.092800 14.642100 6.451420 7.447120 -2.516700
lowerback -6.358550 -1.675223 -0.589900
upperback -1.487783 -2.263613 3.163215
thorax 2.168793 -1.136905 3.422584
lowerneck -21.545040 -6.706634 -14.900599
upperneck 22.676720 -8.750280 15.636500
head 12.171941 -3.401486 6.873625
rclavicle 0.000000 -0.000000
rhumerus -43.706520 16.497471 -93.623528
rradius 44.713680
rwrist -25.133461
rhand -33.420311 -28.805372
rfingers 7.837522
rthumb -4.055073 -61.748062
lclavicle 0.000000 -0.000000
lhumerus -45.176670 -24.218809 109.878891
lradius 29.699339
lwrist 10.397344
lhand -16.371302 -23.978790
lfingers 7.837522
lthumb 12.405360 8.665746
rfemur -22.696301 5.684294 30.414671
rtibia 34.993420
rfoot -17.383301 1.615526
rtoes -13.535501
lfemur -24.097151 8.185298 -16.954191
ltibia 71.372299
lfoot -8.607214 11.999130
ltoes -4.624389
361
root 9.277850 17.099800 14.770900 6.466980 7.288030 -2.288820
lowerback -6.577318 -1.526404 -0.724651
upperback -1.124233 -2.064788 3.062422
thorax 2.654795 -1.045383 3.400518
lowerneck -22.422180 -6.806591 -14.620761
upperneck 22.950951 -8.769541 15.145901
head 12.407781 -3.408460 6.637697
rclavicle 0.000000 0.000000
rhumerus -42.531502 17.149660 -93.448418
rradius 45.151154
rwrist -25.388771
rhand -33.083160 -28.114901
rfingers 7.837522
rthumb -3.729495 -61.062981
lclavicle 0.000000 0.000000
lhumerus -45.415920 -24.502392 109.864372
lradius 30.079941
lwrist 11.537790
lhand -16.857389 -24.408560
lfingers 7.837522
lthumb 11.936431 8.261011
rfemur -21.944891 5.673426 30.220079
rtibia 34.763191
rfoot -17.891062 1.847450
rtoes -13.632851
lfemur -25.547390 7.725828 -17.648291
ltibia 71.211472
lfoot -9.406892 12.061060
ltoes -4.105530
362
root 9.279490 17.093000 14.894600 6.564460 7.077550 -2.140770
lowerback -6.465844 -1.500081 -0.877016
upperback -1.530408 -2.008215 2.950926
thorax 2.171521 -1.009896 3.382489
lowerneck -21.537560 -6.534803 -14.189891
upperneck 23.202190 -8.537067 14.701171
head 12.249381 -3.349390 6.443768
rclavicle 0.000000 0.000000
rhumerus -42.945210 17.953981 -93.903374
rradius 45.933361
rwrist -25.596781
rhand -33.206913 -29.059250
rfingers 7.837522
rthumb -3.849032 -62.005352
lclavicle 0.000000 0.000000
lhumerus -47.078568 -23.772322 109.771530
lradius 30.687691
lwrist 12.106820
lhand -16.899851 -24.388649
lfingers 7.837522
lthumb 11.895511 8.283154
rfemur -21.412821 5.825303 30.159582
rtibia 34.570580
rfoot -18.297070 1.734777
rtoes -14.345980
lfemur -27.105539 7.413912 -18.208632
ltibia 71.029861
lfoot -10.309421 12.161160
ltoes -5.379726
